<svg xmlns="http://www.w3.org/2000/svg" vector-effect="non-scaling-stroke" viewBox="0 0 1280 850">
  <path fill="#6db33f" d="M1005.85 84.817a337.516 337.516 0 0 1-41.471 72.575 386.485 386.485 0 1 0-539.93 552.691l14.355 12.76a386.086 386.086 0 0 0 634.04-267.97c11.165-97.3-18.344-221.715-66.993-370.056zM480.277 713.273a32.858 32.858 0 1 1-4.785-46.257 33.576 33.576 0 0 1 4.785 46.257zm523.182-115.642c-94.906 126.808-299.075 83.741-429.073 90.121 0 0-23.129 1.595-46.257 4.786 0 0 8.773-3.988 19.938-7.976 91.717-31.901 134.783-38.281 190.61-66.993 104.478-53.434 208.955-170.672 229.69-291.897-39.876 116.44-161.101 216.93-271.16 257.603-75.767 27.914-212.145 55.03-212.145 55.03l-5.583-3.19c-92.514-45.46-95.704-246.438 73.373-311.038 74.171-28.711 144.354-12.76 224.905-31.901 85.336-19.939 184.23-83.741 224.107-167.483 44.662 134.784 98.894 343.738 1.595 472.938z" class="cls-1" data-name="Layer 2"/>
  <path fill="#f5a800" d="M1092.216 545.458c-14.104 14.115-14.104 36.988 0 51.103 14.115 14.104 36.989 14.104 51.093 0 14.115-14.115 14.115-36.988 0-51.103-14.104-14.104-36.978-14.104-51.093 0zm38.196 38.228a17.876 17.876 0 0 1-25.299 0 17.879 17.879 0 0 1 0-25.291 17.876 17.876 0 0 1 25.299 0c6.985 6.952 6.985 18.306 0 25.29zm12.3-216.007-22.14 22.137a11.211 11.211 0 0 0 0 15.795l86.433 86.434a11.211 11.211 0 0 0 15.796 0l22.137-22.14c4.328-4.329 4.328-11.456 0-15.782l-86.471-86.447a11.182 11.182 0 0 0-15.755 0v.003zM987.605 650.574a10.117 10.117 0 0 0 0-14.276L976.36 625.04a10.13 10.13 0 0 0-14.284 0l-23.24 23.253-.042.032-6.375-6.385c-3.53-3.53-9.275-3.53-12.77 0-3.53 3.527-3.53 9.273 0 12.77l38.3 38.29a9.015 9.015 0 0 0 12.76 0c3.495-3.53 3.53-9.275 0-12.76l-6.385-6.385.043-.032 23.24-23.25zm0 0"/>
  <path fill="#425cc7" d="m1104.715 431.238-49.181 49.179c-4.369 4.369-4.369 11.563 0 15.932l30.37 30.362c21.465-15.449 51.565-13.537 70.877 5.788l24.595-24.597c4.36-4.37 4.36-11.553 0-15.922l-60.737-60.742a11.251 11.251 0 0 0-15.921 0h-.003zm-31.582 108.273-17.938-17.938c-4.202-4.2-11.09-4.2-15.282 0l-63.26 63.288a10.85 10.85 0 0 0 0 15.29l35.84 35.843a10.85 10.85 0 0 0 15.293 0l40.682-40.75c-8.6-17.769-7.057-39.234 4.665-55.733zm0 0"/>
  <defs transform="translate(52.897 157.434) scale(1.7509)">
    <clipPath id="a" clipPathUnits="userSpaceOnUse">
      <path d="M-11.706 571.296h1366v-768h-1366v768z"/>
    </clipPath>
  </defs>
  <g clip-path="url(#a)" transform="matrix(2.18863 0 0 -2.18863 -763.861 939.861)">
    <path fill="#1ba89c" d="m384.107 153.881 6.153 13.984 13.6 4.163 10.116 47.59 24.485-27.707 23.92 27.25 11.184-40.1 7.35 1.718 14.984 30.11 10.83 8.307c-12.136 25.565-38.185 43.243-68.366 43.243-41.776 0-75.642-33.867-75.642-75.643 0-12.414 2.99-24.13 8.29-34.466l13.096 1.551z"/>
    <path fill="#117a71" d="m502.996 205.041-15.938-32.024-19.815-4.638-9.046 32.435-19.715-22.457-19.442 22-7.513-35.35-14.72-4.507-6.562-14.914-14.192-1.68c13.644-19.784 36.461-32.753 62.31-32.753 41.776 0 75.642 33.867 75.642 75.643a75.546 75.546 0 0 1-3.814 23.765l-7.195-5.52z"/>
  </g>
</svg>
